<svg data-v-423bf9ae="" xmlns="http://www.w3.org/2000/svg" viewBox="0 0 438.9015853908439 163" class="iconAbove"><!----><!----><!----><g data-v-423bf9ae="" id="824f274e-96a2-4f85-b882-5e655525fe8a" fill="black" transform="matrix(4.576659158754479,0,0,4.576659158754479,-4.8054972880501055,88.62928999981887)"><path d="M1.05 10.49C1.05 12.96 1.60 14.14 4.03 14.14C4.38 14.14 4.69 14.11 4.97 14.07L5.96 16.25L6.36 16.25L5.31 13.99C6.68 13.59 7.04 12.46 7.04 10.49L7.04 6.79C7.04 4.31 6.48 3.14 4.05 3.14C1.61 3.14 1.05 4.31 1.05 6.79ZM6.69 10.43C6.69 12.59 6.41 13.82 4.05 13.82C1.71 13.82 1.40 12.59 1.40 10.43L1.40 6.85C1.40 4.69 1.68 3.46 4.05 3.46C6.38 3.46 6.69 4.69 6.69 6.85ZM13.97 13.97L13.97 5.84L13.64 5.84L13.64 11.73C13.64 13.08 12.77 13.83 11.52 13.83C9.90 13.83 9.48 13.02 9.48 11.24L9.48 5.84L9.14 5.84L9.14 11.24C9.14 13.05 9.53 14.14 11.47 14.14C12.52 14.14 13.23 13.66 13.61 12.98L13.66 13.97ZM20.59 9.73C20.15 9.66 19.45 9.60 19.04 9.60C16.95 9.60 16.04 10.35 16.04 11.90C16.04 13.47 16.90 14.14 18.24 14.14C19.36 14.14 20.26 13.54 20.61 12.68L20.62 13.97L20.93 13.97L20.93 8.20C20.93 6.37 20.17 5.67 18.66 5.67C17.01 5.67 16.31 6.51 16.31 8.12L16.63 8.12C16.63 6.48 17.40 5.98 18.66 5.98C20.03 5.98 20.59 6.66 20.59 8.18ZM20.59 11.40C20.59 13.01 19.53 13.82 18.27 13.82C17.01 13.82 16.41 13.12 16.41 11.91C16.41 10.61 17.07 9.91 18.93 9.91C19.36 9.91 20.10 9.97 20.59 10.05ZM23.16 5.84L23.16 13.97L23.49 13.97L23.49 8.19C23.49 6.82 24.36 6.01 25.58 6.01C25.76 6.01 25.89 6.02 26.00 6.03L26.00 5.70C25.90 5.68 25.72 5.67 25.58 5.67C24.54 5.67 23.83 6.30 23.52 6.93L23.46 5.84ZM31.57 9.73C31.12 9.66 30.42 9.60 30.02 9.60C27.93 9.60 27.02 10.35 27.02 11.90C27.02 13.47 27.87 14.14 29.22 14.14C30.34 14.14 31.23 13.54 31.58 12.68L31.60 13.97L31.91 13.97L31.91 8.20C31.91 6.37 31.15 5.67 29.64 5.67C27.99 5.67 27.29 6.51 27.29 8.12L27.61 8.12C27.61 6.48 28.38 5.98 29.64 5.98C31.01 5.98 31.57 6.66 31.57 8.18ZM31.57 11.40C31.57 13.01 30.51 13.82 29.25 13.82C27.99 13.82 27.38 13.12 27.38 11.91C27.38 10.61 28.04 9.91 29.90 9.91C30.34 9.91 31.08 9.97 31.57 10.05ZM34.13 5.84L34.13 13.97L34.47 13.97L34.47 8.08C34.47 6.73 35.36 5.98 36.61 5.98C38.23 5.98 38.68 6.79 38.68 8.57L38.68 13.97L39.02 13.97L39.02 8.57C39.02 6.76 38.58 5.67 36.65 5.67C35.59 5.67 34.87 6.15 34.50 6.85L34.44 5.84ZM43.65 13.73C43.44 13.78 43.19 13.82 42.90 13.82C41.87 13.82 41.44 13.48 41.44 11.98L41.44 6.24L43.64 6.24L43.64 5.92L41.44 5.92L41.44 3.98L41.10 3.98L41.10 12.00C41.10 13.47 41.52 14.14 42.87 14.14C43.18 14.14 43.48 14.08 43.64 14.04ZM45.81 5.84L45.47 5.84L45.47 13.97L45.81 13.97ZM45.46 3.82L45.82 3.82L45.82 3.16L45.46 3.16ZM48.19 5.84L48.19 13.97L48.52 13.97L48.52 8.08C48.52 6.73 49.42 5.98 50.67 5.98C52.29 5.98 52.74 6.79 52.74 8.57L52.74 13.97L53.07 13.97L53.07 8.57C53.07 6.76 52.64 5.67 50.71 5.67C49.64 5.67 48.93 6.15 48.55 6.85L48.50 5.84ZM59.39 11.97C59.37 13.19 58.87 13.83 57.47 13.83C55.87 13.83 55.37 12.98 55.37 11.12L55.37 9.86L59.79 9.86L59.79 8.60C59.79 6.58 59.12 5.67 57.44 5.67C55.83 5.67 55.03 6.45 55.03 8.74L55.03 11.16C55.03 13.36 55.76 14.14 57.47 14.14C59.00 14.14 59.72 13.44 59.72 11.97ZM55.37 9.55L55.37 8.72C55.37 6.76 55.87 5.98 57.44 5.98C59.05 5.98 59.46 6.89 59.46 8.64L59.46 9.55ZM70.69 5.89C70.69 4.06 69.96 3.14 68.10 3.14C65.69 3.14 65.23 4.47 65.23 6.92L65.23 10.42C65.23 12.81 65.63 14.14 68.08 14.14C70.11 14.14 70.66 13.16 70.73 11.34L70.73 11.27L70.41 11.27L70.41 11.34C70.31 13.03 69.89 13.82 68.10 13.82C65.70 13.82 65.58 12.40 65.58 10.40L65.58 6.82C65.58 4.91 65.76 3.46 68.10 3.46C69.72 3.46 70.36 4.30 70.36 5.89L70.36 5.96L70.69 5.96ZM72.69 8.74C72.69 6.59 73.19 5.98 74.80 5.98C76.41 5.98 76.92 6.59 76.92 8.74L76.92 11.07C76.92 13.22 76.41 13.83 74.80 13.83C73.19 13.83 72.69 13.22 72.69 11.07ZM72.35 11.12C72.35 13.51 73.08 14.14 74.79 14.14C76.50 14.14 77.25 13.51 77.25 11.12L77.25 8.69C77.25 6.30 76.51 5.67 74.80 5.67C73.09 5.67 72.35 6.30 72.35 8.69ZM79.35 5.84L79.35 13.97L79.69 13.97L79.69 8.08C79.69 6.73 80.58 5.98 81.83 5.98C83.45 5.98 83.90 6.79 83.90 8.57L83.90 13.97L84.24 13.97L84.24 8.57C84.24 6.76 83.80 5.67 81.87 5.67C80.81 5.67 80.09 6.15 79.72 6.85L79.66 5.84ZM85.41 5.84L87.92 13.97L88.37 13.97L90.89 5.84L90.52 5.84L88.14 13.61L85.79 5.84ZM92.39 8.74C92.39 6.59 92.89 5.98 94.50 5.98C96.11 5.98 96.61 6.59 96.61 8.74L96.61 11.07C96.61 13.22 96.11 13.83 94.50 13.83C92.89 13.83 92.39 13.22 92.39 11.07ZM92.05 11.12C92.05 13.51 92.78 14.14 94.49 14.14C96.19 14.14 96.95 13.51 96.95 11.12L96.95 8.69C96.95 6.30 96.21 5.67 94.50 5.67C92.79 5.67 92.05 6.30 92.05 8.69Z"></path></g><!----><g data-v-423bf9ae="" id="d135cc39-6d91-4c72-8388-c5eb6eff48f2" transform="matrix(1.0873767936355097,0,0,1.0873767936355097,165.63112713411826,-8.75283813598007)" stroke="none" fill="black"><path d="M92.703 32.266c-.758-8.932-8.271-15.97-17.396-15.97-9.029 0-16.48 6.89-17.371 15.688H47.827a9.54 9.54 0 0 0-4.842 1.322c.781-10.054 6.124-18.82 13.958-24.261-1.854-.251-3.733-.429-5.657-.429C28.433 8.616 9.905 27.145 9.905 50c0 .727.024 1.448.063 2.165C4.33 53.041 0 57.928 0 63.808c0 6.498 5.286 11.784 11.783 11.784h6.995c7.577 9.614 19.318 15.792 32.509 15.792 17.486 0 32.404-10.861 38.466-26.187-4.306 2.094-9.126 3.299-14.236 3.299A32.495 32.495 0 0 1 62 65.566a13.666 13.666 0 0 0 2.982-6.741h18.357c4.723 0 8.661-3.423 9.465-7.918C96.958 49.829 100 46.043 100 41.6a9.573 9.573 0 0 0-7.297-9.334zM4.198 63.808c0-4.183 3.403-7.585 7.586-7.585h6.415l-.208-2.288c-.039-.43-.058-.829-.058-1.218 0-7.388 6.01-13.397 13.397-13.397 2.477 0 4.85.695 6.899 1.932-.004.117-.018.232-.018.351 0 5.302 4.314 9.615 9.616 9.615h6.097a9.645 9.645 0 0 0 6.854 7.264c-.773 4.48-4.677 7.902-9.375 7.902h-9.835l-.599 1.085a7.59 7.59 0 0 1-6.644 3.927H11.783c-4.182-.002-7.585-3.404-7.585-7.588zm86.525-16.801l-2.027.173.059 2.031a5.423 5.423 0 0 1-5.417 5.417h-20.01c-2.987 0-5.417-2.43-5.416-5.411l.036-2.198h-10.12a5.425 5.425 0 0 1-5.418-5.417 5.425 5.425 0 0 1 5.418-5.418h14.266l-.049-2.426c0-7.313 5.949-13.262 13.262-13.262s13.261 5.949 13.261 13.262l-.055 2.359 2.071.074a5.394 5.394 0 0 1 5.219 5.411 5.423 5.423 0 0 1-5.08 5.405z"></path></g><!----></svg>